inDegrees=yes
name=ik_S42_A05_T02
DataType=double
version=3
OpenSimVersion=4.3-2021-08-27-4bc7ad9
endheader
time	pelvis_tilt	pelvis_list	pelvis_rotation	pelvis_tx	pelvis_ty	pelvis_tz	hip_flexion_r	hip_adduction_r	hip_rotation_r	knee_angle_r	knee_angle_r_beta	ankle_angle_r	subtalar_angle_r	mtp_angle_r	hip_flexion_l	hip_adduction_l	hip_rotation_l	knee_angle_l	knee_angle_l_beta	ankle_angle_l	subtalar_angle_l	mtp_angle_l	lumbar_extension	lumbar_bending	lumbar_rotation	arm_flex_r	arm_add_r	arm_rot_r	elbow_flex_r	pro_sup_r	wrist_flex_r	wrist_dev_r	arm_flex_l	arm_add_l	arm_rot_l	elbow_flex_l	pro_sup_l	wrist_flex_l	wrist_dev_l
7.39999999999993	-4.88721931646861	-7.10588014906137	36.64063221107648	0	0.9399999999999999	0	44.1894460276071	-10.32527668328208	-10.3157048016429	54.72035885013017	0.9550504298075897	0	0	0	44.1894460276071	-10.32527668328208	-10.3157048016429	54.72035885013017	0.9550504298075897	0	0	0	-5.897470367359573	-6.214967396478275	4.862920746373669	75.9458883243577	25.92374614494622	2.364891115014818	19.74098129325482	93.94994467587708	0	0	39.73391803796032	2.69402179484638	34.50954607983159	34.22432690923187	120.1598284145538	0	0
7.41999999999993	-4.892641314912816	-7.117388350068176	36.60753309895439	0	0.9399999999999999	0	44.18950148042843	-10.32520103826256	-10.31565727417856	54.72037199267291	0.9550506591882327	0	0	0	44.18950148042843	-10.32520103826256	-10.31565727417856	54.72037199267291	0.9550506591882327	0	0	0	-5.908376867990487	-6.221563909556798	4.867729481501502	75.95733224553972	25.82261143863748	2.299347170097958	19.76676509819616	93.96066813474246	0	0	39.76411245401306	2.669842404964979	34.45405058701109	34.22492966963883	120.1650520423836	0	0
7.439999999999929	-4.896675740081696	-7.131676786706138	36.57524433931568	0	0.9399999999999999	0	44.18955722100785	-10.32512843657007	-10.31561092916683	54.72038575568678	0.9550508993981398	0	0	0	44.18955722100785	-10.32512843657007	-10.31561092916683	54.72038575568678	0.9550508993981398	0	0	0	-5.91900897070939	-6.232717268462832	4.880400527002898	75.96055820628986	25.70990260584767	2.236286445282489	19.80499448418849	93.97896664973955	0	-1.077613842297402e-35	39.8081038902989	2.632727991449586	34.33861243242143	34.20606932361833	120.1922599341746	0	-1.077613842297402e-35
7.459999999999929	-4.905947797708365	-7.121835879686899	36.53171298799404	0	0.9399999999999999	0	44.19059495406264	-10.32356860313964	-10.31467073644851	54.72062265503792	0.9550550340718129	0	0	0	44.19059495406264	-10.32356860313964	-10.31467073644851	54.72062265503792	0.9550550340718129	0	0	0	-5.922742191763891	-6.216201058766007	4.877755326359722	75.89622417686658	25.63078131327645	2.299491540554107	19.94725726106085	93.99303063153836	0	0	39.82482578487091	2.641308327909103	34.23404824834206	34.13870096033337	120.3245514857744	0	0
7.479999999999928	-4.929618082396374	-7.10241390512788	36.41210350327101	0	0.9399999999999999	0	44.1908159499845	-10.32326691194194	-10.31448109710312	54.72067482696176	0.9550559446436611	0	0	0	44.1908159499845	-10.32326691194194	-10.31448109710312	54.72067482696176	0.9550559446436611	0	0	0	-5.92405759558704	-6.197710723947369	4.945300063640286	75.895429699619	25.49113849796019	2.314947903638991	20.60298603199713	95.4057571338119	0	0	39.8632163405585	2.672892610285419	34.18370415550392	34.123060789492	120.3066897313364	0	0
7.499999999999928	-4.911369479586273	-7.07977759477777	36.35376586328946	0	0.9399999999999999	0	44.19092260967145	-10.32311868187466	-10.31438848167986	54.72069958907916	0.9550563768241395	0	0	0	44.19092260967145	-10.32311868187466	-10.31438848167986	54.72069958907916	0.9550563768241395	0	0	0	-5.897555313853454	-6.187396291234155	4.927688139582342	75.83177529498951	25.47152503327873	2.212701249035785	20.5908052300918	95.47864002877449	0	0	39.83769150676691	2.637337307021662	34.17131332939001	34.0965661317211	120.2691164529137	0	0
7.519999999999928	-4.912568701857793	-7.070302041472869	36.32512568232661	0	0.9399999999999999	0	44.19181329381262	-10.3221476104616	-10.31371005244918	54.72091335060905	0.9550601076666501	0	0	0	44.19181329381262	-10.3221476104616	-10.31371005244918	54.72091335060905	0.9550601076666501	0	0	0	-5.894892423836004	-6.176064893543617	4.922881482403238	75.79999140162305	25.51141675256942	2.253256243267295	20.62445781730175	95.4959055068153	0	1.077613842297402e-35	39.85297561294315	2.626320609421674	34.25968737463389	34.1231981430946	120.2336058237003	0	1.077613842297402e-35
7.539999999999927	-4.91185965323104	-7.041308045765224	36.26128906774381	0	0.9399999999999999	0	44.1919228678475	-10.3219955998224	-10.31361499346282	54.72093878793968	0.9550605516318226	4.526746979652276e-51	0	0	44.1919228678475	-10.3219955998224	-10.31361499346282	54.72093878793968	0.9550605516318226	4.526746979652276e-51	0	0	-5.878647809526615	-6.15062481902265	4.910305658053578	75.75070438744532	25.43550757299572	2.149560240553769	20.60817151169852	95.59014321173845	0	0	39.85733395060083	2.600063961767253	34.24488307653179	34.08796184284306	120.1564227433537	0	0
7.559999999999927	-4.912506539857701	-7.025349732553261	36.16828592776211	0	0.9399999999999999	0	44.19237236417194	-10.32137443546381	-10.31322596377042	54.72104341482994	0.9550623777155438	0	0	0	44.19237236417194	-10.32137443546381	-10.31322596377042	54.72104341482994	0.9550623777155438	0	0	0	-5.868419851838903	-6.139677142268676	4.929818138247263	75.74004984857838	25.43731723359263	2.168621812793715	21.23219577841996	94.83273452551896	0	0	39.85059299571703	2.57732230166986	34.18224316298164	34.06737831339715	120.1487131015312	0	0
7.579999999999926	-4.914330298594415	-6.96281484642403	36.02588139412238	0	0.9399999999999999	0	44.19271385167906	-10.3208987490486	-10.31292880125907	54.72112224465003	0.955063753555453	0	0	0	44.19271385167906	-10.3208987490486	-10.31292880125907	54.72112224465003	0.955063753555453	0	0	0	-5.834305798328835	-6.086213057562658	4.923668057415051	75.55363636181767	25.14122098647063	1.881379363245758	21.44366316339402	95.18554003317087	0	0	39.80888167444043	2.538714666713178	34.04865873977245	34.08908824152061	120.1111030465947	0	0
7.599999999999926	-4.916578231689874	-6.949596772939722	35.9751572550643	0	0.9399999999999999	0	44.19293550911632	-10.32059091875491	-10.31273627434293	54.72117352342804	0.9550646485389658	0	0	0	44.19293550911632	-10.32059091875491	-10.31273627434293	54.72117352342804	0.9550646485389658	0	0	0	-5.82545879114167	-6.079461672309075	4.956068949197691	75.4957081394076	24.83154140238111	1.662446277199622	21.58214028213536	95.28561587028273	0	0	39.80539582525745	2.554099930548833	34.02973446891797	34.09459101628049	120.1170749680388	0	0
7.619999999999925	-4.914923538449374	-6.929776530450155	35.92775172661682	0	0.9399999999999999	0	44.19299111936819	-10.32051491743144	-10.31268847933978	54.72118657938201	0.9550648764083494	0	0	0	44.19299111936819	-10.32051491743144	-10.31268847933978	54.72118657938201	0.9550648764083494	0	0	0	-5.813779954470964	-6.062202042782876	4.944162337563795	75.46234744710958	24.75411609423469	1.653027493081712	21.60589331873322	95.26945221193995	0	0	39.81453895803215	2.526828361865058	33.96563728095568	34.0965288912606	120.0999747400698	0	0
7.639999999999925	-4.92236938851647	-6.894631721514446	35.86547333324113	0	0.9399999999999999	0	44.19338646222467	-10.31996551073515	-10.31234487310383	54.72127789245069	0.955066470122048	0	0	0	44.19338646222467	-10.31996551073515	-10.31234487310383	54.72127789245069	0.955066470122048	0	0	0	-5.798296124991404	-6.031343777548694	4.961143936944876	75.39795565406854	24.5630893218757	1.586538885182106	21.92431156479217	94.80497190245256	0	0	39.7923198613203	2.531851384820901	33.95357415142638	34.12928792197755	120.0780466041725	0	0
7.659999999999925	-4.935501963105142	-6.860122431971861	35.78570751111737	0	0.9399999999999999	0	44.19346150091053	-10.3198627030842	-10.31228025937697	54.7212954491703	0.955066776544611	0	0	0	44.19346150091053	-10.3198627030842	-10.31228025937697	54.7212954491703	0.955066776544611	0	0	0	-5.789522336284882	-5.994538861907011	4.957563176109058	75.38636570452094	24.43803750421747	1.372511987045279	21.94078266458175	94.81240927175995	0	0	39.76572584677885	2.522338899187848	33.86713264117406	34.13530915733503	120.0681345448613	0	0
7.679999999999924	-4.933026139798819	-6.849114347371712	35.73362590589812	0	0.9399999999999999	0	44.19390003030177	-10.31925386973276	-10.31189926917816	54.72139670742856	0.9550685438346126	0	0	0	44.19390003030177	-10.31925386973276	-10.31189926917816	54.72139670742856	0.9550685438346126	0	0	0	-5.779430644001422	-5.990201763250576	4.980265062723814	75.5355845892844	24.34017955277342	0.9639474733744677	21.75850021585998	95.11869975940257	0	0	39.76243801267461	2.521978507347592	33.86988916207865	34.13902434084464	120.0761771699096	0	0
7.699999999999924	-4.939066608335659	-6.822429045668125	35.68725469419828	0	0.9399999999999999	0	44.19401218865273	-10.31909950850718	-10.3118023776429	54.72142280465702	0.9550689993171749	0	0	0	44.19401218865273	-10.31909950850718	-10.3118023776429	54.72142280465702	0.9550689993171749	0	0	0	-5.769072468784015	-5.964645049904392	4.980550800099041	75.6378464175657	24.24135897288496	0.8483377801462099	21.68126791890737	95.11969552593867	0	0	39.75458632793649	2.5319010185236	33.83138132864206	34.14079735583658	120.0918211782706	0	0
7.719999999999923	-4.952996507299211	-6.807606424392108	35.65071107756739	0	0.9399999999999999	0	44.19422324355197	-10.31880875805941	-10.31161991706503	54.72147184515525	0.9550698552353357	0	0	0	44.19422324355197	-10.31880875805941	-10.31161991706503	54.72147184515525	0.9550698552353357	0	0	0	-5.771619090996492	-5.944978504985321	4.988390258960913	75.80486673580938	24.17077158055767	0.8924154330814803	21.39839145428121	95.18038601919741	0	0	39.7875571585415	2.523951937756516	33.84362510879975	34.15144205245275	120.0968766170569	0	0
7.739999999999923	-4.947068448344787	-6.804244633138991	35.59178407470854	0	0.9399999999999999	0	44.1940256032939	-10.31941184709076	-10.31191019530183	54.72143669443488	0.9550692417395308	0	0	0	44.1940256032939	-10.31941184709076	-10.31191019530183	54.72143669443488	0.9550692417395308	0	0	0	-5.762460920599487	-5.949723832826047	5.008616942890841	75.81513362211878	24.20187930913558	0.8610184860012242	21.16596733273536	95.59327917504139	0	0	39.76698959088509	2.464796995137237	33.8950756984013	34.17201179831628	120.0185719313746	0	0
7.759999999999923	-4.942670434028403	-6.804399198406162	35.58469360426406	0	0.9399999999999999	0	44.19409366042919	-10.31932133779594	-10.31185273487606	54.72145305186888	0.9550695272306112	0	0	0	44.19409366042919	-10.31932133779594	-10.31185273487606	54.72145305186888	0.9550695272306112	0	0	0	-5.759375830395534	-5.951738639446137	5.00511243183293	75.86411720678268	24.19775072635162	1.051180793641302	21.10179787964876	95.62224587339574	0	0	39.77540408057759	2.430151662676466	33.97173421938395	34.17518123030401	120.0066087605166	0	0
7.779999999999922	-4.954170418157004	-6.792282591143339	35.61572660218975	0	0.9399999999999999	0	44.19428222069098	-10.31906208386152	-10.31168997410997	54.72149697693401	0.9550702938676221	0	0	0	44.19428222069098	-10.31906208386152	-10.31168997410997	54.72149697693401	0.9550702938676221	0	0	0	-5.764637436253435	-5.930220309265946	4.981165330188944	75.86928664500135	24.22810696836673	1.407139275097008	20.95474257871524	95.57393349308859	0	0	39.78121094188221	2.462028532710476	33.95658870485788	34.18854362340247	119.9698329697056	0	0
